# xmcd
#
# Track frame offsets: 
#        188
#        18473
#        47955
#        70650
#
# Disc length: 1206 seconds
#
# Revision: 11
# Processed by: cddbd v1.5.2PL0 Copyright (c) Steve Scherf et al.
# Submitted via: ExactAudioCopy v1.3
#
DISCID=2f04b404
DTITLE=Dr. Alban - Sing Hallelujah!
DYEAR=1993
DGENRE=Euro-House
TTITLE0=Sing Hallelujah! (Short)
TTITLE1=Sing Hallelujah! (Long)
TTITLE2=Sing Hallelujah! (Paradise Dub)
TTITLE3=Sing Hallelujah! (Original Version)
EXTD=Logic Records - SweMix Records YEAR: 1993
EXTT0=
EXTT1=
EXTT2=
EXTT3=
PLAYORDER=
